HIERARCHY
ROOT Hips
{
	OFFSET 0.00000 0.00000 0.00000
	CHANNELS 6 Xposition Yposition Zposition Zrotation Yrotation Xrotation 
	JOINT LHipJoint
	{
		OFFSET 0 0 0
		CHANNELS 3 Zrotation Yrotation Xrotation
		JOINT LeftHip
		{
			OFFSET 1.36306 -1.79463 0.83929
			CHANNELS 3 Zrotation Yrotation Xrotation
			JOINT LeftKnee
			{
				OFFSET 2.44811 -6.72613 0.00000
				CHANNELS 3 Zrotation Yrotation Xrotation
				JOINT LeftAnkle
				{
					OFFSET 2.56220 -7.03959 0.00000
					CHANNELS 3 Zrotation Yrotation Xrotation
					JOINT LeftToe
					{
						OFFSET 0.15764 -0.43311 2.32255
						CHANNELS 3 Zrotation Yrotation Xrotation
						End Site
						{
							OFFSET 0.00000 -0.00000 1.18966
						}
					}
				}
			}
		}
	}
	JOINT RHipJoint
	{
		OFFSET 0 0 0
		CHANNELS 3 Zrotation Yrotation Xrotation
		JOINT RightHip
		{
			OFFSET -1.30552 -1.79463 0.83929
			CHANNELS 3 Zrotation Yrotation Xrotation
			JOINT RightKnee
			{
				OFFSET -2.54253 -6.98555 0.00000
				CHANNELS 3 Zrotation Yrotation Xrotation
				JOINT RightAnkle
				{
					OFFSET -2.56826 -7.05623 0.00000
					CHANNELS 3 Zrotation Yrotation Xrotation
					JOINT RightToe
					{
						OFFSET -0.16473 -0.45259 2.36315
						CHANNELS 3 Zrotation Yrotation Xrotation
						End Site
						{
							OFFSET -0.00000 -0.00000 1.21082
						}
					}
				}
			}
		}
	}
	JOINT lowerback
	{
		OFFSET 0 0 0
		CHANNELS 3 Zrotation Yrotation Xrotation
		JOINT Chest
		{
			OFFSET 0.02827 2.03559 -0.19338
			CHANNELS 3 Zrotation Yrotation Xrotation
			JOINT Chest2
			{
				OFFSET 0.05672 2.04885 -0.04275
				CHANNELS 3 Zrotation Yrotation Xrotation
				JOINT lowerneck
				{
					OFFSET 0 0 0
					CHANNELS 3 Zrotation Yrotation Xrotation
					JOINT Neck
					{
						OFFSET -0.05417 1.74624 0.17202
						CHANNELS 3 Zrotation Yrotation Xrotation
						JOINT Head
						{
							OFFSET 0.10407 1.76136 -0.12397
							CHANNELS 3 Zrotation Yrotation Xrotation
							End Site
							{
								OFFSET 0.03720 1.77044 -0.06241
							}
						}
					}
				}
				JOINT LeftCollar
				{
					OFFSET 0 0 0
					CHANNELS 3 Zrotation Yrotation Xrotation
					JOINT LeftShoulder
					{
						OFFSET 3.36241 1.20089 -0.31121
CHANNELS 3 Zrotation Xrotation Yrotation
						JOINT LeftElbow
						{
OFFSET 0 -4.983000 -0.000000
CHANNELS 3 Zrotation Xrotation Yrotation
							JOINT LeftWrist
							{
OFFSET 0 -3.483560 -0.000000
CHANNELS 3 Zrotation Xrotation Yrotation
								JOINT lhand
								{
									OFFSET 0 0 0
CHANNELS 3 Zrotation Xrotation Yrotation
									JOINT LFingers
									{
OFFSET 0 -0.715260 -0.000000
CHANNELS 3 Zrotation Xrotation Yrotation
										End Site
										{
OFFSET 0 -0.576660 -0.000000
										}
									}
								}
								JOINT LThumb
								{
OFFSET 0 0.000000 0.000000
CHANNELS 3 Zrotation Xrotation Yrotation
									End Site
									{
OFFSET 0 -0.585470 0.585470
									}
								}
							}
						}
					}
				}
				JOINT RightCollar
				{
					OFFSET 0 0 0
					CHANNELS 3 Zrotation Yrotation Xrotation
					JOINT RightShoulder
					{
						OFFSET -3.13660 1.37405 -0.40465
CHANNELS 3 Zrotation Xrotation Yrotation
						JOINT RightElbow
						{
OFFSET 0 -5.241900 -0.000000
CHANNELS 3 Zrotation Xrotation Yrotation
							JOINT RightWrist
							{
OFFSET 0 -3.444170 -0.000000
CHANNELS 3 Zrotation Xrotation Yrotation
								JOINT rhand
								{
									OFFSET 0 0 0
CHANNELS 3 Zrotation Xrotation Yrotation
									JOINT RFingers
									{
OFFSET 0 -0.622530 -0.000000
CHANNELS 3 Zrotation Xrotation Yrotation
										End Site
										{
OFFSET 0 -0.501900 -0.000000
										}
									}
								}
								JOINT RThumb
								{
OFFSET 0 0.000000 0.000000
CHANNELS 3 Zrotation Xrotation Yrotation
									End Site
									{
OFFSET 0 -0.509560 0.509560
									}
								}
							}
						}
					}
				}
			}
		}
	}
}
MOTION
Frames: 5
Frame Time: 0.008333333333333333
9.372200 17.869300 -17.319800 -3.231600 -7.597000 -2.016800 0.000000 0.000000 0.000000 -13.810200 2.500200 3.350200 1.128100 6.746200 18.965600 0.822900 0.740200 -17.423700 0.059800 -1.577900 -4.340500 0.000000 0.000000 0.000000 22.612400 4.586400 1.003100 -1.950100 -8.761300 25.051500 -0.673400 -4.265200 -17.633400 -0.043400 -1.345300 3.699400 1.173000 -0.395100 2.301900 2.703900 -0.462700 0.003000 2.131500 -0.231800 -1.274500 -6.707900 -3.765300 -9.328200 -3.013200 -3.233500 27.837700 -0.318400 -2.557300 10.556000 -0.000000 0.000000 0.000000 30.810300 -43.605500 -29.661100 154.407300 -36.803700 111.357500 38.942700 -20.980000 13.733500 0.000000 0.000000 0.000000 -7.125000 0.000000 0.000000 7.720900 12.653500 5.897100 -0.000000 0.000000 0.000000 -2.608300 -1.133600 15.035600 -10.966100 -18.236200 -1.765300 -18.645700 -0.967300 20.026800 0.000000 0.000000 0.000000 7.125000 0.000000 -0.000000 9.815400 50.762800 -1.405400
9.370700 17.853245 -17.333650 -2.989246 -7.369248 -2.272464 0.000000 0.000000 0.000000 -14.083823 2.269178 3.670393 1.117619 6.715843 18.876183 0.851650 0.694673 -17.703067 0.060963 -1.591448 -4.377865 0.000000 0.000000 0.000000 22.432800 4.505945 1.165610 -1.988073 -8.841186 25.299740 -0.684585 -4.606858 -17.977350 -0.032813 -1.169390 3.215086 0.759047 -0.420309 2.694056 2.698094 -0.501036 0.121611 2.362607 -0.248627 -1.368204 -7.178194 -3.794287 -8.971896 -2.141286 -3.465779 27.049151 0.063856 -2.590146 10.224674 0.000000 0.000000 0.000000 30.268144 -44.802463 -30.236837 154.188218 -37.022219 111.225957 39.456087 -20.400034 14.040970 0.000000 0.000000 0.000000 -7.125000 0.000000 0.000000 8.001145 12.162430 6.198418 0.000000 0.000000 0.000000 -2.456486 -1.118477 14.904538 -10.509717 -17.532818 -1.625130 -20.232696 -0.045102 20.909299 0.000000 0.000000 0.000000 7.125000 0.000000 0.000000 8.555059 51.935588 -1.471046
9.359691 17.854836 -17.368810 -4.119878 -7.051277 -1.982561 0.000000 0.000000 0.000000 -12.702880 1.948119 2.687910 1.260150 7.116048 20.059709 0.917111 0.045463 -18.122027 0.039882 -1.288456 -3.542811 0.000000 0.000000 0.000000 23.909226 4.852332 1.338461 -1.879998 -8.611604 24.587584 -0.643853 -5.273389 -17.988033 -0.054155 -1.501164 4.128954 1.571295 -0.543424 2.768096 3.050501 -0.641317 0.336685 2.273742 -0.323513 -1.189136 -7.061293 -3.708449 -8.730151 -1.624849 -3.545657 25.649389 0.241515 -2.521816 9.673610 0.000000 0.000000 0.000000 30.273290 -45.578559 -30.246851 153.899589 -37.307639 111.051568 40.031261 -20.570524 15.593540 0.000000 0.000000 0.000000 -7.125000 0.000000 0.000000 8.097970 10.112828 6.615268 0.000000 0.000000 0.000000 -2.366818 -1.209224 13.956327 -10.379666 -17.331233 -1.586215 -18.962330 1.033130 20.605876 0.000000 0.000000 0.000000 7.125000 0.000000 0.000000 9.705428 51.406355 -1.543761
9.359744 17.841658 -17.409142 -4.269111 -6.616623 -1.913360 0.000000 0.000000 0.000000 -12.485224 1.578002 2.186193 1.337274 7.322205 20.673382 0.949809 -0.107046 -18.391436 0.075226 -1.768459 -4.866304 0.000000 0.000000 0.000000 24.118624 4.710015 1.148192 -1.873020 -8.596345 24.540461 -0.625293 -5.679928 -18.079403 -0.046882 -1.397093 3.841997 1.393790 -0.597548 3.233065 3.153540 -0.702003 0.349354 2.488385 -0.352717 -1.431572 -6.668018 -3.456851 -7.901907 -1.516724 -3.378590 24.467369 0.262792 -2.366011 9.081765 0.000000 0.000000 0.000000 29.749004 -46.107570 -30.719732 153.869132 -37.337627 111.033076 40.751229 -21.860940 18.665997 0.000000 0.000000 0.000000 -7.125000 0.000000 0.000000 7.963997 6.139749 7.137911 0.000000 0.000000 0.000000 -2.324780 -0.526035 14.858801 -10.555688 -17.604109 -1.639029 -18.534955 -1.517136 19.328366 0.000000 0.000000 0.000000 7.125000 0.000000 0.000000 9.690367 50.032243 -1.211888
9.367946 17.849437 -17.463059 -3.956147 -6.175321 -1.848297 0.000000 0.000000 0.000000 -12.836073 1.206085 1.932618 1.321052 7.279447 20.545923 0.922232 -0.294408 -18.058128 0.072385 -1.734151 -4.771551 0.000000 0.000000 0.000000 23.768980 4.713770 0.622093 -1.931614 -8.722093 24.929815 -0.606183 -6.089830 -18.176872 -0.031083 -1.138351 3.129559 0.738893 -0.650430 4.257509 3.342996 -0.757084 0.113557 3.074740 -0.370859 -2.235587 -7.164338 -3.176101 -7.238461 -1.259928 -3.027638 23.840010 0.486529 -2.202468 8.746651 0.000000 0.000000 0.000000 28.223451 -45.802058 -31.415514 154.137846 -37.072155 111.195546 40.919911 -20.135151 18.821527 0.000000 0.000000 0.000000 -7.125000 0.000000 0.000000 8.036932 5.900979 7.241351 0.000000 0.000000 0.000000 -2.761129 0.668632 16.625340 -11.191282 -18.580766 -1.836472 -18.721197 -2.053961 20.462193 0.000000 0.000000 0.000000 7.125000 0.000000 0.000000 9.893468 51.218274 -1.530953
